<svg xmlns="http://www.w3.org/2000/svg" viewBox="0 0 231 231"><path d="M33.83,33.83a115.5,115.5,0,1,1,0,163.34,115.49,115.49,0,0,1,0-163.34Z" style="fill:#fc0065;"/><path d="m115.5 51.75a63.75 63.75 0 0 0-10.5 126.63v14.09a115.5 115.5 0 0 0-53.729 19.027 115.5 115.5 0 0 0 128.46 0 115.5 115.5 0 0 0-53.729-19.029v-14.084a63.75 63.75 0 0 0 53.25-62.881 63.75 63.75 0 0 0-63.65-63.75 63.75 63.75 0 0 0-0.09961 0z" style="fill:#dbbc7f;"/><path d="m116 203.13c-0.12 0-0.25 0.12-0.49 0.12s-0.25-0.12-0.49-0.12zm-27.29-8c0.87-0.25 1.72-0.47 2.56-0.69a32.37 32.37 0 0 0 0.3 8.57 21.5 21.5 0 0 0 7 6.88c6.41-6 16.8-6.64 16.8-6.64s10.5 0.58 17 6.69a21.61 21.61 0 0 0 6.93-6.66 32.34 32.34 0 0 0 0.35-8.84l2.13 0.56a114.79 114.79 0 0 1 38 16.5 115.53 115.53 0 0 1-128.46 0 114.64 114.64 0 0 1 37.38-16.37z" style="fill:#000;"/><path d="m126.15 206-3.92 7.83h-13.46l-3.92-7.83a36.59 36.59 0 0 1 10.65-2.7 35.66 35.66 0 0 1 10.65 2.7z" style="fill:#ff2500;"/><path d="m124.54 230.65-2.18-16.74h-13.47l-2.19 16.76c2.9 0.22 5.84 0.33 8.8 0.33s6.06-0.12 9-0.35z" style="fill:#ff2500;"/><path d="m134.84 186s0.86 9.8-19.34 17.26c0 0 15.79 0.86 20.57 11.76 0.12 0.49 9.3-23.26-1.23-29z" style="fill:#fff;"/><path d="m96.16 186c-10.41 5.76-1.35 29.39-1.1 29 4.65-10.78 20.56-11.76 20.56-11.76-20.32-7.45-19.46-17.24-19.46-17.24z" style="fill:#fff;"/><path d="m69.834 33.826c-8.2001-0.0626-16.444 2.6753-23.152 7.7038-8.5298 6.9899-12.159 19.61-12.329 32.68-0.2041 15.476 1.6092 34.752 1.7464 51.915 0.10414 13.047 0.53485 25.984-2.9197 33.995-2.4994 5.81-9.0955 9.6006-16.196 12.311 7.9599 2.8301 25.009 2.8094 33.58 1.5393 10.8-1.59 17.238-6.5294 17.159-22.699-0.0911-15.93-1.3894-29.23-1.559-45.83-0.3208-11.983-1.569-24.291 4.9774-33.987 4.2139-6.1265 10.452-10.521 17.116-13.588 3.9292-1.8575 8.0384-3.3083 12.263-4.3297-6.8718-13.574-18.732-19.618-30.687-19.709z" style="fill:none;"/><path d="m90.8 76.246c11.918-17.125 31.996-23.218 49.743-17.488 11.81 3.9496 20.692 13.389 22.313 28.237 0.51051 6.2098 0.63413 12.445 0.37007 18.67-0.23973 11.2-0.72946 23.82-1.0995 34.08-0.82005 22.43 0.0593 35.1 24.589 36.3 8.5635 0.32122 17.137-0.22845 25.59-1.6405h-0.0198c-10.74-3.3799-17.98-15.609-19.3-26.289-1.29-10.41-0.6098-23.43-0.7898-38.091-0.1701-14.96 1.0398-29.819 0.28008-42.089-1.414-22.777-14.947-38.505-34.126-45.152-27.813-7.35-51.083 0.091-61.672 17.343-5.4698 8.9112-7.7413 20.07-5.8788 36.121z" style="fill:#9c0092;"/><path d="m172.7 90.75h-6.54c-0.14-0.1-0.26-0.22-0.4-0.3-4.48-2.76-22.75-2.11-33.71 1.2-1 0.3-1.91 0.61-2.75 0.94-1.8937 0.79244-3.8739 1.3597-5.9 1.69-5.5051 0.79002-10.403 0.79002-15.908 0-2.0261-0.33034-4.0063-0.89756-5.9-1.69-0.84-0.33-1.76-0.64-2.75-0.94-11-3.31-29.23-4-33.71-1.2-0.13832 0.08869-0.2688 0.18906-0.39 0.3h-6.55c-1.1046 0-2 0.89543-2 2v4.66c-0.0013 0.98185 0.49088 1.8986 1.31 2.44l1.9 1.27c0.59238 0.38889 0.93475 1.0622 0.9 1.77-0.14175 5.4854 0.88072 10.939 3 16 3.58 8.38 16 10.9 24.93 10.9 2.6976 0.0771 5.3921-0.2361 8-0.93 4.35-1.43 8.24-7.36 10.45-12.42 1.7607-3.8506 2.7493-8.009 2.91-12.24 7.3e-4 -0.7138 0.38183-1.3731 1-1.73 3.2281-1.951 6.5798-1.951 9.8079 0 0.61817 0.3569 0.99927 1.0162 1 1.73 0.16067 4.231 1.1493 8.3894 2.91 12.24 2.21 5.06 6.1 11 10.45 12.42 2.6079 0.6939 5.3024 1.0071 8 0.93 8.92 0 21.35-2.52 24.93-10.9 2.1193-5.0614 3.1418-10.515 3-16-0.0348-0.70778 0.30762-1.3811 0.9-1.77l1.9-1.27c0.81913-0.54136 1.3113-1.4582 1.31-2.44v-4.6c0.0336-1.1048-0.83521-2.0274-1.94-2.06z" style="fill:#000;stroke-linecap:round;stroke-linejoin:round;stroke-width:2.5;stroke:magenta;"/><path d="m136.21 147.09a21.77 21.77 0 0 1-40.13 0z" style="fill:#fff;stroke-linecap:round;stroke-linejoin:round;stroke-width:3.4999px;stroke:#000;"/></svg>